<svg id="facebook" class="icon" xmlns="http://www.w3.org/2000/svg" viewBox="0 0 400 400">
  <title>facebook</title>
  <circle class="background" cx="200" cy="200" r="200" style="fill: #3b5998"/>
  <path class="icon" d="M184.09,110.3c7.8-7.43,18.89-9.93,29.36-10.25,11.07-.1,22.13,0,33.2,0q.07,17.51,0,35c-7.15,0-14.31,0-21.46,0a9.89,9.89,0,0,0-10,7.65c-.11,7.81,0,15.63,0,23.44,10.49,0,21,0,31.47,0-.77,11.3-2.17,22.55-3.81,33.76-9.27.09-18.54,0-27.8,0-.08,33.33,0,66.66-.07,100-13.76.06-27.53,0-41.3,0-.26-33.34,0-66.69-.14-100-6.71-.07-13.43,0-20.15-.06,0-11.21,0-22.41,0-33.61,6.71-.08,13.42,0,20.13,0,.2-10.89-.2-21.8.21-32.69C174.36,124.94,177.64,116.26,184.09,110.3Z" style="fill: #fff"/>
</svg>
