<svg id="github" class="icon" xmlns="http://www.w3.org/2000/svg" viewBox="0 0 400 400">
  <title>github</title>
  <circle class="background" cx="200" cy="200" r="200" style="fill: #231e1b"/>
  <path class="icon" d="M200.34,100A102.55,102.55,0,0,0,97.65,202.69c0,45.18,29.44,83.52,70.51,97.21,5.48.68,6.85-2.05,6.85-4.79V277.3c-28.75,6.16-34.91-13.69-34.91-13.69-4.79-11.64-11.64-15.06-11.64-15.06-9.58-6.16.68-6.16.68-6.16,10.27.68,15.75,10.27,15.75,10.27,8.9,15.75,24,11,30.12,8.21.68-6.85,3.42-11,6.85-13.69-22.59-2.74-46.55-11.64-46.55-50.66a40.82,40.82,0,0,1,10.27-27.38c-1.37-2.74-4.79-13,.68-27.38,0,0,8.9-2.74,28.07,10.27a108.35,108.35,0,0,1,26-3.42,108.35,108.35,0,0,1,26,3.42c19.85-13,28.07-10.27,28.07-10.27,5.48,14.38,2.05,24.64.68,27.38,6.85,6.85,10.27,16.43,10.27,27.38,0,39.7-24,47.92-46.55,50.66,3.42,3.42,6.85,9.58,6.85,19.17v28.07c0,2.74,2.05,6.16,6.85,4.79A102,102,0,0,0,302.34,202C303,145.87,257.16,100,200.34,100Z" style="fill: #fff"/>
</svg>
