<svg id="google-plus" class="icon" xmlns="http://www.w3.org/2000/svg" viewBox="0 0 400 400">
  <title>google-plus</title>
  <circle class="background" cx="200" cy="200" r="200" style="fill: #db4437"/>
  <path class="icon" d="M238.88,202.33q0,28.39-11.87,50.55a85.4,85.4,0,0,1-33.84,34.64Q171.18,300,142.81,300a97.66,97.66,0,0,1-38.88-7.92,98.05,98.05,0,0,1-53.22-53.22,99.45,99.45,0,0,1,0-77.72A98.05,98.05,0,0,1,104,107.92,98.45,98.45,0,0,1,142.84,100q39,0,67,26.21l-27.14,26q-16-15.4-39.84-15.43a59.77,59.77,0,0,0-31.05,8.47,63.76,63.76,0,0,0,0,109.45,59.69,59.69,0,0,0,31.05,8.47,66.21,66.21,0,0,0,20.82-3.14,52.68,52.68,0,0,0,15.62-7.86A56.48,56.48,0,0,0,190,241.49a48.72,48.72,0,0,0,6.67-11.32,50.88,50.88,0,0,0,2.92-10.1H142.84V185.68h94.4a89.18,89.18,0,0,1,1.64,16.65Zm118.3-16.65v28.64H328.66v28.52H300V214.32H271.5V185.68H300V157.16h28.64v28.52Z" style="fill: #fff"/>
</svg>
