<svg id="linkedin" class="icon" xmlns="http://www.w3.org/2000/svg" viewBox="0 0 400 400">
  <title>linkedin</title>
  <circle class="background" cx="200" cy="200" r="200" style="fill: #007bb5"/>
  <path class="icon" d="M304.65,222.62V300H259.79V227.8c0-18.14-6.49-30.51-22.73-30.51-12.4,0-19.77,8.34-23,16.41-1.18,2.88-1.49,6.9-1.49,10.94V300H167.68s.6-122.28,0-134.95h44.87v19.13c-.09.14-.21.3-.29.44h.29v-.44c6-9.18,16.61-22.3,40.44-22.3C282.52,161.88,304.65,181.17,304.65,222.62ZM120.74,100c-15.35,0-25.39,10.07-25.39,23.31,0,13,9.75,23.33,24.8,23.33h.3c15.65,0,25.38-10.37,25.38-23.33C145.53,110.07,136.1,100,120.74,100ZM98,300h44.86V165.05H98Z" style="fill: #fff"/>
</svg>
