<svg id="twitter" class="icon" xmlns="http://www.w3.org/2000/svg" viewBox="0 0 400 400">
  <title>twitter</title>
  <circle class="background" cx="200" cy="200" r="200" style="fill: #1da1f2"/>
  <path class="icon" d="M323.11,123.66a100.87,100.87,0,0,1-29,8,50.72,50.72,0,0,0,22.2-27.93A101.83,101.83,0,0,1,284.21,116a50.55,50.55,0,0,0-86.07,46A143.4,143.4,0,0,1,94,109.23a50.57,50.57,0,0,0,15.63,67.42,50.51,50.51,0,0,1-22.88-6.34v.63a50.56,50.56,0,0,0,40.51,49.53A51.16,51.16,0,0,1,114,222.24a48.48,48.48,0,0,1-9.51-.94,50.54,50.54,0,0,0,47.17,35.08A101.34,101.34,0,0,1,88.94,278a107.34,107.34,0,0,1-12-.69A142.77,142.77,0,0,0,154.31,300C247.23,300,298,223,298,156.3l-.17-6.54A100.86,100.86,0,0,0,323.11,123.66Z" style="fill: #fff"/>
</svg>
